# File created by Blade
# Date/Time:  Wed Jan 28 16:58:26 2015
#---------------------------------------------------------
:version 1.10
:name HOM
:units
  mass 1.0
  length 1.000000
  angle deg
:documentation
     Acclaim Skeleton File
:root
   axis xyz
   order TX TY TZ RX RY RZ
   position 0.000000 0.000000 0.000000
   orientation 0 0 0
:bonedata
   begin
      id 1
      name Spine_dum
      direction 0.000000 1.000000 0.000000
      length 9.621153
      axis 0.0 0.0 0.0 xyz
   end
   begin
      id 2
      name LeftUpLeg_dum
      direction 1.000000 0.000000 0.000000
      length 2.700595
      axis 0.0 0.0 0.0 xyz
   end
   begin
      id 3
      name RightUpLeg_dum
      direction -1.000000 0.000000 0.000000
      length 2.700595
      axis 0.0 0.0 0.0 xyz
   end
   begin
      id 4
      name Spine
      direction 0.000000 1.000000 0.000000
      length 0.000000
      axis 0.0 0.0 0.0 xyz
      dof rx ry rz
   end
   begin
      id 5
      name Spine_dum1
      direction 0.000000 1.000000 0.000000
      length 12.771951
      axis 0.0 0.0 0.0 xyz
   end
   begin
      id 6
      name Spine_dum2
      direction 0.000000 1.000000 0.000000
      length 7.400569
      axis 0.0 0.0 0.0 xyz
   end
   begin
      id 7
      name Spine_dum3
      direction 0.000000 1.000000 0.000000
      length 7.400569
      axis 0.0 0.0 0.0 xyz
   end
   begin
      id 8
      name Head
      direction 0.000000 1.000000 0.000000
      length 4.527550
      axis 0.0 0.0 0.0 xyz
      dof rx ry rz
   end
   begin
      id 9
      name LeftShoulder
      direction 1.000000 0.000000 0.000000
      length 8.349299
      axis 0.0 0.0 -90.0 xyz
      dof rx ry rz
   end
   begin
      id 10
      name LeftArm
      direction 1.000000 0.000000 0.000000
      length 11.334839
      axis 0.0 0.0 -90.0 xyz
      dof rx ry rz
   end
   begin
      id 11
      name LeftForeArm
      direction 1.000000 0.000000 0.000000
      length 9.694182
      axis 0.0 0.0 -90.0 xyz
      dof ry rz rx
   end
   begin
      id 12
      name LeftHand
      direction 0.000000 0.000000 0.000000
      length 0.000000
      axis 0.0 0.0 -90.0 xyz
      dof rx ry rz
   end
   begin
      id 13
      name LeftHand_dum1
      direction 0.000000 0.000000 0.000000
      length 0.000000
      axis 0.0 0.0 -90.0 xyz
   end
   begin
      id 14
      name LeftHand_dum2
      direction 1.000000 0.000000 0.000000
      length 3.937000
      axis 0.0 0.0 -90.0 xyz
   end
   begin
      id 15
      name LeftHandThumb1
      direction 0.000000 0.000000 1.000000
      length 3.937000
      axis 0.0 0.0 -90.0 xyz
      dof rx rz ry
   end
   begin
      id 16
      name RightShoulder
      direction -1.000000 0.000000 0.000000
      length 8.349299
      axis 0.0 0.0 90.0 xyz
      dof rx ry rz
   end
   begin
      id 17
      name RightArm
      direction -1.000000 0.000000 0.000000
      length 11.334839
      axis 0.0 0.0 90.0 xyz
      dof rx ry rz
   end
   begin
      id 18
      name RightForeArm
      direction -1.000000 0.000000 0.000000
      length 9.694182
      axis 0.0 0.0 90.0 xyz
      dof ry rz rx
   end
   begin
      id 19
      name RightHand
      direction 0.000000 0.000000 0.000000
      length 0.000000
      axis 0.0 0.0 90.0 xyz
      dof rx ry rz
   end
   begin
      id 20
      name RightHand_dum1
      direction 0.000000 0.000000 0.000000
      length 0.000000
      axis 0.0 0.0 90.0 xyz
   end
   begin
      id 21
      name RightHand_dum2
      direction -1.000000 0.000000 0.000000
      length 3.937000
      axis 0.0 0.0 90.0 xyz
   end
   begin
      id 22
      name RightHandThumb1
      direction 0.000000 0.000000 1.000000
      length 3.937000
      axis 0.0 0.0 90.0 xyz
      dof rx rz ry
   end
   begin
      id 23
      name LeftUpLeg
      direction 0.000000 -1.000000 0.000000
      length 16.757176
      axis 0.0 0.0 0.0 xyz
      dof rx ry rz
   end
   begin
      id 24
      name LeftLeg
      direction 0.000000 -1.000000 0.000000
      length 16.759153
      axis 0.0 0.0 0.0 xyz
      dof rx ry rz
   end
   begin
      id 25
      name LeftFoot
      direction 0.000000 -0.258819 0.965926
      length 5.841289
      axis 15.0 0.0 0.0 xyz
      dof rx ry rz
   end
   begin
      id 26
      name LeftToeBase
      direction 0.000000 0.000000 1.000000
      length 2.952750
      axis 0.0 0.0 0.0 xyz
      dof rx ry rz
   end
   begin
      id 27
      name RightUpLeg
      direction 0.000000 -1.000000 0.000000
      length 16.757176
      axis 0.0 0.0 0.0 xyz
      dof rx ry rz
   end
   begin
      id 28
      name RightLeg
      direction 0.000000 -1.000000 0.000000
      length 16.759153
      axis 0.0 0.0 0.0 xyz
      dof rx ry rz
   end
   begin
      id 29
      name RightFoot
      direction 0.000000 -0.258819 0.965926
      length 5.841289
      axis 15.0 0.0 0.0 xyz
      dof rx ry rz
   end
   begin
      id 30
      name RightToeBase
      direction 0.000000 0.000000 1.000000
      length 2.952750
      axis 0.0 0.0 0.0 xyz
      dof rx ry rz
   end
:hierarchy
   begin
      root Spine_dum LeftUpLeg_dum RightUpLeg_dum
      Spine_dum Spine
      LeftUpLeg_dum LeftUpLeg
      RightUpLeg_dum RightUpLeg
      Spine Spine_dum1 Spine_dum2 Spine_dum3
      Spine_dum1 Head
      Spine_dum2 LeftShoulder
      Spine_dum3 RightShoulder
      LeftShoulder LeftArm
      LeftArm LeftForeArm
      LeftForeArm LeftHand
      LeftHand LeftHand_dum1 LeftHand_dum2
      LeftHand_dum1 LeftHandThumb1
      RightShoulder RightArm
      RightArm RightForeArm
      RightForeArm RightHand
      RightHand RightHand_dum1 RightHand_dum2
      RightHand_dum1 RightHandThumb1
      LeftUpLeg LeftLeg
      LeftLeg LeftFoot
      LeftFoot LeftToeBase
      RightUpLeg RightLeg
      RightLeg RightFoot
      RightFoot RightToeBase
   end

# File created by Blade
# Date/Time:  Wed Jan 28 16:58:32 2015
# Frame Rate: 120.000 fps
#------------------------------------------------------
:FULLY-SPECIFIED
:DEGREES
3085
root 12.934282 35.621929 -18.133480 162.866038 -23.415076 -172.597595
Spine 39.362582 -6.796626 17.357313
Head 3.593901 -2.396305 27.503077
LeftShoulder 5.754057 -12.619440 24.667896
LeftArm 82.467552 -2.350308 -53.680757
LeftForeArm -33.278804 -0.000000 41.004760
LeftHand 8.201161 -0.000000 7.338638
LeftHandThumb1 -26.253704 0.000000 33.147579
RightShoulder 2.435087 10.922562 -11.048253
RightArm 42.707941 -20.678385 52.022638
RightForeArm 26.488724 -0.000000 64.384329
RightHand -6.055637 0.000000 20.451247
RightHandThumb1 -24.326973 -0.000000 -32.862282
LeftUpLeg 3.922895 10.455356 2.824493
LeftLeg 24.848031 -0.000000 -0.000000
LeftFoot -16.316501 1.900779 -4.986565
LeftToeBase 11.530062 -0.000000 -0.000000
RightUpLeg -101.934853 9.102155 13.275153
RightLeg 134.554292 -0.000000 -0.000000
RightFoot 12.402416 -14.741169 7.366040
RightToeBase 0.759600 -0.000000 -0.000000
3086
root 12.929217 35.615364 -18.124147 162.741346 -23.929283 -172.714115
Spine 39.472163 -7.416019 16.872479
Head 3.875265 -2.739319 28.075157
LeftShoulder 5.862821 -12.973517 24.978040
LeftArm 82.358195 -2.273561 -54.038084
LeftForeArm -32.980669 0.000000 40.588129
LeftHand 8.100603 -0.000000 7.521744
LeftHandThumb1 -26.253704 0.000000 33.147579
RightShoulder 2.570947 11.567012 -11.349781
RightArm 42.997666 -21.225542 52.254102
RightForeArm 26.198620 0.000000 64.470542
RightHand -6.072530 -0.000000 21.550067
RightHandThumb1 -24.326973 -0.000000 -32.862282
LeftUpLeg 4.008426 10.707713 2.775732
LeftLeg 24.930378 -0.000000 -0.000000
LeftFoot -16.237612 1.365392 -4.838197
LeftToeBase 11.528622 -0.000000 -0.000000
RightUpLeg -102.527694 9.413267 12.997316
RightLeg 134.678687 -0.000000 -0.000000
RightFoot 11.789330 -14.658367 7.620744
RightToeBase 0.755662 -0.000000 -0.000000
3087
root 12.885084 35.600492 -18.135637 162.626647 -24.426895 -173.010580
Spine 39.516536 -7.930191 16.320760
Head 4.275621 -3.343403 28.592830
LeftShoulder 6.067700 -13.154626 25.178254
LeftArm 82.377965 -2.193588 -54.288246
LeftForeArm -32.869035 0.000000 40.169074
LeftHand 8.148889 -0.000000 7.539303
LeftHandThumb1 -26.253704 0.000000 33.147579
RightShoulder 2.640135 12.043615 -11.719569
RightArm 43.355601 -21.963693 52.432716
RightForeArm 25.119813 0.000000 64.370672
RightHand -4.012586 -0.000000 20.204710
RightHandThumb1 -24.326973 -0.000000 -32.862282
LeftUpLeg 4.283901 10.950488 2.531152
LeftLeg 24.895156 -0.000000 -0.000000
LeftFoot -16.219150 0.876626 -4.678662
LeftToeBase 11.710146 -0.000000 -0.000000
RightUpLeg -103.152542 9.316286 12.793550
RightLeg 134.953917 -0.000000 -0.000000
RightFoot 11.360255 -14.377714 7.801518
RightToeBase 0.452307 -0.000000 -0.000000
3088
root 12.875994 35.618086 -18.176680 162.152675 -24.768077 -172.743318
Spine 39.783319 -8.710457 16.395035
Head 4.560805 -3.768623 28.863095
LeftShoulder 6.076982 -13.381227 25.164936
LeftArm 82.549175 -2.050145 -54.507492
LeftForeArm -32.596082 -0.000000 39.611761
LeftHand 8.054924 0.000000 7.849819
LeftHandThumb1 -26.253704 0.000000 33.147579
RightShoulder 2.829641 12.265870 -12.304983
RightArm 43.547578 -22.150780 52.808828
RightForeArm 24.648165 0.000000 64.865513
RightHand -4.190067 -0.000000 20.069339
RightHandThumb1 -24.326973 -0.000000 -32.862282
LeftUpLeg 4.750125 11.427282 3.031661
LeftLeg 24.826352 -0.000000 -0.000000
LeftFoot -16.173494 0.065519 -4.531242
LeftToeBase 11.946823 -0.000000 -0.000000
RightUpLeg -103.428818 9.360406 13.299331
RightLeg 135.105932 -0.000000 -0.000000
RightFoot 10.943443 -14.293650 8.096451
RightToeBase 0.200947 -0.000000 -0.000000
3089
root 12.837892 35.615148 -18.186891 161.993754 -25.002036 -173.000705
Spine 40.038592 -9.054716 15.982777
Head 4.781714 -4.233275 29.330019
LeftShoulder 6.086111 -13.657383 25.274256
LeftArm 82.726671 -1.871393 -54.580368
LeftForeArm -32.518261 -0.000000 39.088125
LeftHand 8.060342 -0.000000 7.966932
LeftHandThumb1 -26.253704 0.000000 33.147579
RightShoulder 3.116493 12.885175 -12.975781
RightArm 42.702404 -21.446338 55.805570
RightForeArm 22.529751 -0.000000 64.769687
RightHand -4.981965 -0.000000 24.418230
RightHandThumb1 -24.326973 -0.000000 -32.862282
LeftUpLeg 5.110720 12.014251 2.978797
LeftLeg 24.754449 -0.000000 -0.000000
LeftFoot -16.112683 -0.577489 -4.475340
LeftToeBase 12.232038 -0.000000 -0.000000
RightUpLeg -103.941160 9.556128 13.334961
RightLeg 135.271423 -0.000000 -0.000000
RightFoot 10.780569 -14.149271 8.295626
RightToeBase -0.061310 -0.000000 0.000000
3090
root 12.825376 35.614955 -18.201939 161.753830 -25.388826 -173.134702
Spine 40.336267 -9.433688 15.635600
Head 4.854617 -4.825822 29.876698
LeftShoulder 6.150519 -13.903407 25.434003
LeftArm 83.008257 -1.797551 -54.487133
LeftForeArm -32.523561 0.000000 38.594352
LeftHand 8.094160 -0.000000 7.812692
LeftHandThumb1 -26.253704 0.000000 33.147579
RightShoulder 3.322548 13.358357 -13.549570
RightArm 41.967029 -20.592085 58.729957
RightForeArm 21.078236 -0.000000 64.759985
RightHand -5.790989 -0.000000 28.257197
RightHandThumb1 -24.326973 -0.000000 -32.862282
LeftUpLeg 5.436370 12.547088 3.088944
LeftLeg 24.775795 -0.000000 -0.000000
LeftFoot -16.087071 -1.438586 -4.546914
LeftToeBase 12.646940 -0.000000 -0.000000
RightUpLeg -104.430498 9.657917 13.499070
RightLeg 135.406433 -0.000000 -0.000000
RightFoot 10.674246 -13.985566 8.459609
RightToeBase -0.196652 -0.000000 0.000000
3091
root 12.810247 35.614937 -18.214595 161.552241 -25.765964 -173.323471
Spine 40.660461 -9.769142 15.219184
Head 4.857173 -5.383404 30.456727
LeftShoulder 6.144146 -14.169700 25.617177
LeftArm 83.312772 -1.685339 -54.309057
LeftForeArm -32.530590 -0.000000 38.139934
LeftHand 8.009995 -0.000000 7.703111
LeftHandThumb1 -26.253704 0.000000 33.147579
RightShoulder 3.475427 13.959603 -13.984837
RightArm 41.348027 -19.902818 61.464937
RightForeArm 19.929493 -0.000000 64.603409
RightHand -6.711105 0.000000 32.132018
RightHandThumb1 -24.326973 -0.000000 -32.862282
LeftUpLeg 5.755652 13.106245 3.169641
LeftLeg 24.799539 -0.000000 -0.000000
LeftFoot -16.040971 -2.387611 -4.661285
LeftToeBase 13.166079 -0.000000 -0.000000
RightUpLeg -104.931734 9.762343 13.675862
RightLeg 135.500152 -0.000000 -0.000000
RightFoot 10.749158 -13.958277 8.513043
RightToeBase -0.388829 -0.000000 0.000000
3092
root 12.803379 35.596891 -18.197845 161.642594 -26.053272 -173.750128
Spine 40.857265 -9.793979 14.506357
Head 4.897085 -5.852101 31.285345
LeftShoulder 6.101285 -14.406486 26.000112
LeftArm 83.618498 -1.571505 -54.034544
LeftForeArm -32.629439 -0.000000 37.718531
LeftHand 8.091896 0.000000 7.587083
LeftHandThumb1 -26.253704 0.000000 33.147579
RightShoulder 3.608309 14.566949 -14.115812
RightArm 40.698709 -18.898682 64.344486
RightForeArm 17.855006 -0.000000 64.467684
RightHand -7.566104 -0.000000 37.682773
RightHandThumb1 -24.326973 -0.000000 -32.862282
LeftUpLeg 5.807751 13.755204 2.999468
LeftLeg 24.909641 -0.000000 -0.000000
LeftFoot -16.097135 -3.252381 -4.987790
LeftToeBase 14.101804 -0.000000 -0.000000
RightUpLeg -105.716478 9.919994 13.712488
RightLeg 135.544869 -0.000000 -0.000000
RightFoot 11.074475 -13.858480 8.312418
RightToeBase -0.487036 -0.000000 0.000000
3093
root 12.824151 35.597784 -18.203674 161.467825 -26.280189 -173.711780
Spine 41.074154 -9.923023 14.372638
Head 4.917460 -6.349577 31.968663
LeftShoulder 6.147981 -14.636135 26.283033
LeftArm 83.924714 -1.465920 -53.874955
LeftForeArm -32.766832 0.000000 37.417505
LeftHand 7.948927 -0.000000 7.646840
LeftHandThumb1 -26.253704 0.000000 33.147579
RightShoulder 3.512042 14.807318 -14.060547
RightArm 40.791713 -18.953667 64.379677
RightForeArm 17.026534 -0.000000 65.193570
RightHand -7.301994 -0.000000 38.414310
RightHandThumb1 -24.326973 -0.000000 -32.862282
LeftUpLeg 5.926506 14.516717 3.410785
LeftLeg 25.084567 -0.000000 -0.000000
LeftFoot -16.120499 -4.403194 -5.201543
LeftToeBase 14.763256 -0.000000 -0.000000
RightUpLeg -106.274565 10.056104 14.262775
RightLeg 135.497015 -0.000000 -0.000000
RightFoot 11.393878 -13.744328 8.195656
RightToeBase -0.526954 -0.000000 0.000000
3094
root 12.841149 35.595174 -18.211873 161.293613 -26.497746 -173.723223
Spine 41.289394 -9.952135 14.226631
Head 4.948900 -6.900669 32.661727
LeftShoulder 6.296813 -15.006174 26.623731
LeftArm 84.002174 -1.314240 -53.693370
LeftForeArm -32.796733 -0.000000 37.281946
LeftHand 7.831156 -0.000000 7.684204
LeftHandThumb1 -26.253704 0.000000 33.147579
RightShoulder 3.310357 15.093963 -14.028321
RightArm 40.761657 -18.948901 64.658588
RightForeArm 15.516797 0.000000 65.765325
RightHand -6.535548 -0.000000 39.631627
RightHandThumb1 -24.326973 -0.000000 -32.862282
LeftUpLeg 6.060724 15.278927 3.794705
LeftLeg 25.305291 -0.000000 -0.000000
LeftFoot -16.057730 -5.638131 -5.478671
LeftToeBase 15.172616 -0.000000 -0.000000
RightUpLeg -106.795717 10.218396 14.734146
RightLeg 135.463501 -0.000000 -0.000000
RightFoot 11.694699 -13.565216 8.126073
RightToeBase -0.777807 -0.000000 0.000000
3095
root 12.857951 35.594528 -18.224641 161.102688 -26.665044 -173.687931
Spine 41.458789 -9.845184 14.251645
Head 4.931323 -7.580056 33.347964
LeftShoulder 6.579566 -15.365457 26.916460
LeftArm 84.086007 -1.175505 -53.479974
LeftForeArm -32.894716 -0.000000 37.211833
LeftHand 7.886960 0.000000 7.481115
LeftHandThumb1 -26.253704 0.000000 33.147579
RightShoulder 2.943898 15.267214 -14.034142
RightArm 40.795848 -19.109025 64.777932
RightForeArm 15.426670 -0.000000 66.477211
RightHand -6.964986 -0.000000 39.733934
RightHandThumb1 -24.326973 -0.000000 -32.862282
LeftUpLeg 6.237665 15.984985 4.203969
LeftLeg 25.445771 -0.000000 -0.000000
LeftFoot -16.004318 -6.603002 -5.372200
LeftToeBase 15.426726 -0.000000 -0.000000
RightUpLeg -107.255173 10.390021 15.268979
RightLeg 135.418155 -0.000000 -0.000000
RightFoot 11.990814 -13.334323 8.100018
RightToeBase -0.952149 -0.000000 0.000000
3096
root 12.847084 35.592581 -18.247203 160.893199 -26.868106 -173.850761
Spine 41.708033 -9.851761 13.951419
Head 5.094405 -8.123824 33.953456
LeftShoulder 6.723941 -15.741044 27.257614
LeftArm 83.945883 -0.954183 -53.276252
LeftForeArm -33.023164 0.000000 37.304852
LeftHand 7.589393 -0.000000 7.806827
LeftHandThumb1 -26.253704 0.000000 33.147579
RightShoulder 2.711281 15.339402 -14.015402
RightArm 40.932012 -19.542139 64.781631
RightForeArm 17.788657 -0.000000 67.209621
RightHand -8.641598 -0.000000 37.344320
RightHandThumb1 -24.326973 -0.000000 -32.862282
LeftUpLeg 6.607360 16.548234 4.369639
LeftLeg 25.467526 -0.000000 -0.000000
LeftFoot -15.936878 -7.345053 -5.371155
LeftToeBase 15.684356 -0.000000 -0.000000
RightUpLeg -107.602649 10.527429 15.558709
RightLeg 135.453039 -0.000000 -0.000000
RightFoot 12.203817 -13.019349 8.220134
RightToeBase -1.220563 -0.000000 0.000000
3097
root 12.835938 35.595650 -18.274281 160.639191 -27.062752 -173.903652
Spine 41.904456 -9.922679 13.796386
Head 5.298004 -8.671949 34.473989
LeftShoulder 6.882347 -15.861417 27.485809
LeftArm 84.035500 -0.861586 -53.001257
LeftForeArm -33.160116 -0.000000 37.326168
LeftHand 7.548129 -0.000000 7.657348
LeftHandThumb1 -26.253704 0.000000 33.147579
RightShoulder 2.553871 15.276764 -13.960283
RightArm 41.070527 -19.696139 64.718821
RightForeArm 18.510433 0.000000 67.885343
RightHand -9.036493 -0.000000 36.218175
RightHandThumb1 -24.326973 -0.000000 -32.862282
LeftUpLeg 6.976574 16.936058 4.566709
LeftLeg 25.450318 -0.000000 -0.000000
LeftFoot -15.877703 -7.870197 -5.382424
LeftToeBase 15.930648 -0.000000 -0.000000
RightUpLeg -107.872462 10.625921 15.893936
RightLeg 135.487426 -0.000000 -0.000000
RightFoot 12.310221 -12.666815 8.502993
RightToeBase -1.521133 -0.000000 0.000000
